<svg width="900" height="560" viewBox="0 0 900 560" fill="none" xmlns="http://www.w3.org/2000/svg">
  <defs>
    <linearGradient id="panel" x1="80" y1="80" x2="780" y2="460" gradientUnits="userSpaceOnUse">
      <stop stop-color="#0f172a"/>
      <stop offset="1" stop-color="#0b1220"/>
    </linearGradient>
    <linearGradient id="accent" x1="0" y1="0" x2="1" y2="1">
      <stop stop-color="#7dd3fc"/>
      <stop offset="1" stop-color="#22c55e"/>
    </linearGradient>
  </defs>
  <rect x="0" y="0" width="900" height="560" rx="28" fill="#05070e"/>
  <rect x="60" y="60" width="780" height="440" rx="26" fill="url(#panel)" stroke="#1f2937" stroke-width="2"/>
  <rect x="110" y="110" width="680" height="100" rx="16" fill="#0b1020" stroke="#1f2937"/>
  <rect x="110" y="240" width="680" height="140" rx="16" fill="#0b1020" stroke="#1f2937"/>
  <rect x="110" y="410" width="680" height="60" rx="14" fill="#0b1020" stroke="#1f2937"/>
  <rect x="140" y="140" width="120" height="40" rx="12" fill="#22c55e" fill-opacity="0.85"/>
  <rect x="280" y="140" width="160" height="40" rx="12" fill="#7dd3fc" fill-opacity="0.82"/>
  <rect x="470" y="140" width="140" height="40" rx="12" fill="#facc15" fill-opacity="0.9"/>
  <rect x="640" y="140" width="120" height="40" rx="12" fill="#a78bfa" fill-opacity="0.9"/>
  <rect x="160" y="270" width="580" height="18" rx="9" fill="#111827" stroke="#1f2937"/>
  <rect x="160" y="310" width="230" height="18" rx="9" fill="#111827" stroke="#1f2937"/>
  <rect x="410" y="310" width="230" height="18" rx="9" fill="#111827" stroke="#1f2937"/>
  <rect x="660" y="310" width="80" height="18" rx="9" fill="#111827" stroke="#1f2937"/>
  <circle cx="220" cy="362" r="26" fill="#0f172a" stroke="#22c55e" stroke-width="4"/>
  <circle cx="320" cy="362" r="26" fill="#0f172a" stroke="#7dd3fc" stroke-width="4"/>
  <circle cx="420" cy="362" r="26" fill="#0f172a" stroke="#facc15" stroke-width="4"/>
  <circle cx="520" cy="362" r="26" fill="#0f172a" stroke="#a78bfa" stroke-width="4"/>
  <circle cx="620" cy="362" r="26" fill="#0f172a" stroke="#22c55e" stroke-width="4"/>
  <rect x="150" y="424" width="140" height="22" rx="8" fill="#0f172a" stroke="#1f2937"/>
  <rect x="310" y="424" width="140" height="22" rx="8" fill="#0f172a" stroke="#1f2937"/>
  <rect x="470" y="424" width="140" height="22" rx="8" fill="#0f172a" stroke="#1f2937"/>
  <rect x="630" y="424" width="140" height="22" rx="8" fill="#0f172a" stroke="#1f2937"/>
  <rect x="130" y="470" width="220" height="10" rx="5" fill="#22c55e" fill-opacity="0.6"/>
  <rect x="370" y="470" width="140" height="10" rx="5" fill="#7dd3fc" fill-opacity="0.65"/>
  <rect x="530" y="470" width="220" height="10" rx="5" fill="#a78bfa" fill-opacity="0.65"/>
  <rect x="130" y="122" width="140" height="8" rx="4" fill="url(#accent)" opacity="0.9"/>
  <path d="M170 194H730" stroke="#22c55e" stroke-width="3" stroke-linecap="round" stroke-dasharray="10 14" opacity="0.6"/>
  <path d="M170 228H640" stroke="#7dd3fc" stroke-width="3" stroke-linecap="round" stroke-dasharray="12 12" opacity="0.55"/>
  <text x="150" y="126" fill="#e2e8f0" font-size="16" font-family="'Inter', 'Segoe UI', sans-serif" font-weight="700">Signal chain pro</text>
  <text x="150" y="206" fill="#e2e8f0" font-size="18" font-family="'Inter', 'Segoe UI', sans-serif" font-weight="700">Mixage + Mastering alignés</text>
  <text x="150" y="234" fill="#cbd5e1" font-size="14" font-family="'Inter', 'Segoe UI', sans-serif" font-weight="500">Gain staging, compression bus, spatialisation</text>
</svg>
