<svg width="900" height="900" viewBox="0 0 900 900" xmlns="http://www.w3.org/2000/svg" role="img" aria-labelledby="title desc">
  <title id="title">Grille émeraude</title>
  <desc id="desc">Textures premium inspirées d'interfaces futuristes</desc>
  <defs>
    <linearGradient id="grid" x1="0%" y1="0%" x2="100%" y2="100%">
      <stop offset="0%" stop-color="#0f172a"/>
      <stop offset="50%" stop-color="#0b3b32"/>
      <stop offset="100%" stop-color="#22c55e"/>
    </linearGradient>
    <linearGradient id="accent" x1="0%" y1="0%" x2="100%" y2="0%">
      <stop offset="0%" stop-color="#34d399" stop-opacity="0.9"/>
      <stop offset="100%" stop-color="#22d3ee" stop-opacity="0.9"/>
    </linearGradient>
  </defs>
  <rect width="900" height="900" fill="#081018"/>
  <g fill="none" stroke="url(#grid)" stroke-width="2" opacity="0.65">
    <path d="M80 140 L820 140 M80 260 L820 260 M80 380 L820 380 M80 500 L820 500 M80 620 L820 620 M80 740 L820 740"/>
    <path d="M140 100 L140 820 M260 100 L260 820 M380 100 L380 820 M500 100 L500 820 M620 100 L620 820 M740 100 L740 820"/>
  </g>
  <rect x="160" y="260" width="580" height="320" rx="36" fill="#0f172a" opacity="0.92" stroke="url(#accent)" stroke-width="6"/>
  <circle cx="520" cy="420" r="160" fill="#22d3ee" opacity="0.08"/>
  <text x="220" y="420" font-family="'Inter','Helvetica Neue',Arial,sans-serif" font-size="88" font-weight="700" fill="#a7f3d0" letter-spacing="4">STUDIO</text>
  <text x="220" y="500" font-family="'Inter','Helvetica Neue',Arial,sans-serif" font-size="48" font-weight="600" fill="#86efac" letter-spacing="6">SZD</text>
</svg>
