<svg role="img" viewBox="0 0 24 24" xmlns="http://www.w3.org/2000/svg">
  <title>Amazon Music</title>
  <path fill="currentColor" d="M15.93 17.09c-1.97 1.55-4.82 2.36-7.2 2.36-3.4 0-6.48-1.26-8.79-3.36-.18-.16-.02-.38.2-.24 2.54 1.48 5.7 2.36 8.95 2.36 2.1 0 4.42-.44 6.55-1.35.32-.14.58.2.29.42zm.81-.94c-.25-.32-1.64-.15-2.26-.07-.19.02-.22-.14-.05-.26 1.06-.74 2.81-.52 3.01-.28.2.25-.05 2.01-1.04 2.85-.15.13-.3.06-.23-.11.23-.58.74-1.88.57-2.13zM12.2 6.5c0-1.16-.82-1.74-2.06-1.74-1.03 0-2.08.55-2.08 1.68 0 1.14.94 1.49 1.91 1.72l.74.17c1.51.33 2.71.91 2.71 2.6 0 1.9-1.61 2.94-3.56 2.94-1.8 0-3.3-.77-3.72-2.58l1.9-.45c.2 1 1.03 1.38 1.95 1.38 1.04 0 1.79-.44 1.79-1.39 0-.9-.62-1.17-1.92-1.45l-.72-.17c-1.56-.36-2.72-.95-2.72-2.63 0-1.9 1.58-2.97 3.46-2.97 1.4 0 2.79.48 3.3 1.96l-1.88.5c-.2-.66-.78-1-1.8-1z"/>
</svg>
