<svg role="img" viewBox="0 0 24 24" xmlns="http://www.w3.org/2000/svg">
  <title>Apple Music</title>
  <path fill="currentColor" d="M19.37 6.078c-1.1 0-2.41.594-3.2 1.594-.702.88-1.323 2.32-1.06 3.723 1.214.094 2.6-.56 3.4-1.59.7-.87 1.23-2.27.86-3.727zm3.54 10.51c-.05.12-.79 2.73-3.1 2.77-2.05.04-2.58-1.19-4.8-1.19-2.24 0-2.86 1.15-4.9 1.23-2.3.09-4.07-2.33-5.33-4.6-2.6-4.52-2.89-9.83-.63-12.57 1.6-1.95 4.41-3.07 7.1-2.98 1.9.07 3.7 1.25 4.87 1.25 1.14 0 3.2-1.55 5.4-1.32.92.04 3.5.37 5.15 2.79-.14.09-3.08 1.8-3.05 5.36.04 4.26 3.74 5.67 3.79 5.69z"/>
</svg>
