<svg role="img" viewBox="0 0 24 24" xmlns="http://www.w3.org/2000/svg">
  <title>Deezer</title>
  <path fill="currentColor" d="M0 17.258h5.143v-2.543H0v2.543zm0-4.571h5.143v-2.543H0v2.543zm0-4.572h5.143V5.572H0v2.543zm6.286 9.143h5.143v-2.543H6.286v2.543zm0-4.571h5.143v-2.543H6.286v2.543zm0-4.572h5.143V5.572H6.286v2.543zm6.286 9.143h5.143v-2.543h-5.143v2.543zm0-4.571h5.143v-2.543h-5.143v2.543zm0-4.572h5.143V5.572h-5.143v2.543zm6.286 9.143H24v-2.543h-5.143v2.543zm0-4.571H24v-2.543h-5.143v2.543zm0-4.572H24V5.572h-5.143v2.543z"/>
</svg>
