<svg role="img" viewBox="0 0 24 24" xmlns="http://www.w3.org/2000/svg">
  <title>Instagram</title>
  <path fill="currentColor" d="M7.03 2C4.25 2 2 4.25 2 7.03v9.94C2 19.75 4.25 22 7.03 22h9.94c2.78 0 5.03-2.25 5.03-5.03V7.03C22 4.25 19.75 2 16.97 2H7.03zm9.94 1.8c1.79 0 3.23 1.44 3.23 3.23v9.94c0 1.79-1.44 3.23-3.23 3.23H7.03c-1.79 0-3.23-1.44-3.23-3.23V7.03c0-1.79 1.44-3.23 3.23-3.23h9.94zm-4.97 3.66a4.54 4.54 0 1 0 0 9.08 4.54 4.54 0 0 0 0-9.08zm0 1.8a2.74 2.74 0 1 1 0 5.48 2.74 2.74 0 0 1 0-5.48zm4.96-.9a1.05 1.05 0 1 0 0 2.1 1.05 1.05 0 0 0 0-2.1z"/>
</svg>
