<svg role="img" viewBox="0 0 24 24" xmlns="http://www.w3.org/2000/svg">
  <title>Shazam</title>
  <path fill="currentColor" d="M12 0C5.372 0 0 5.373 0 12c0 6.628 5.372 12 12 12s12-5.372 12-12C24 5.373 18.628 0 12 0zm5.94 15.06c-.18.25-.5.33-.77.2-2.2-1.06-3.29-2.67-3.63-4.76-.2-1.17-.12-2.34-.13-3.5-.01-1.07-.63-1.78-1.68-1.94-.93-.15-1.7.46-1.75 1.39-.04.85 0 1.71-.02 2.56-.03 1.75-.56 3.29-1.74 4.6-.49.55-1.07 1.03-1.71 1.4-.34.2-.78.06-.92-.27-.12-.27-.01-.57.27-.77 1.7-1.1 2.54-2.75 2.5-4.77-.02-1.03-.02-2.07.02-3.1.08-1.9 1.52-3.38 3.4-3.56 2.05-.2 3.85 1.04 4.28 3.03.13.62.14 1.26.16 1.9.03.98-.05 1.98.07 2.95.2 1.59.96 2.74 2.37 3.46.28.14.4.48.28.78z"/>
</svg>
