<svg role="img" viewBox="0 0 24 24" xmlns="http://www.w3.org/2000/svg">
  <title>Spotify</title>
  <path fill="currentColor" d="M12 0C5.373 0 0 5.373 0 12c0 6.628 5.373 12 12 12s12-5.372 12-12C24 5.373 18.627 0 12 0zm5.5 17.34a.75.75 0 0 1-1.03.25c-2.83-1.726-6.38-2.118-10.55-1.165a.75.75 0 1 1-.335-1.462c4.54-1.037 8.47-.58 11.65 1.366a.75.75 0 0 1 .265 1.01zm1.48-3.272a.938.938 0 0 1-1.288.316c-3.23-1.987-8.15-2.56-11.96-1.4a.938.938 0 1 1-.543-1.796c4.25-1.29 9.53-.652 13.15 1.579a.938.938 0 0 1 .34 1.301zm.125-3.396c-3.75-2.224-9.94-2.428-13.503-1.346a1.125 1.125 0 0 1-.652-2.152c4.09-1.24 10.88-1 15.24 1.58a1.125 1.125 0 0 1-1.085 1.918z"/>
</svg>
